<?xml version="1.0" standalone="no"?>
<!DOCTYPE svg PUBLIC "-//W3C//DTD SVG 20010904//EN"
 "http://www.w3.org/TR/2001/REC-SVG-20010904/DTD/svg10.dtd">
<svg version="1.0" xmlns="http://www.w3.org/2000/svg"
 width="1024.000000pt" height="1024.000000pt" viewBox="0 0 1024.000000 1024.000000"
 preserveAspectRatio="xMidYMid meet">
<metadata>
Created by potrace 1.14, written by Peter Selinger 2001-2017
</metadata>
<g transform="translate(0.000000,1024.000000) scale(0.100000,-0.100000)"
fill="#000000" stroke="none">
<path d="M3435 9905 c-412 -91 -755 -562 -679 -933 61 -299 341 -421 673 -293
30 11 55 20 56 18 1 -1 10 -22 19 -47 17 -43 79 -197 171 -420 24 -58 87 -213
141 -345 140 -346 298 -735 421 -1035 30 -74 63 -156 73 -181 l19 -46 -52 -39
c-82 -62 -96 -74 -182 -159 -134 -133 -222 -251 -311 -420 -71 -133 -141 -322
-158 -427 -3 -18 -8 -44 -11 -58 -9 -44 -15 -96 -17 -133 -1 -42 -4 -44 -103
-53 -38 -3 -79 -8 -90 -10 -19 -4 -47 -7 -167 -19 -29 -3 -64 -8 -78 -10 -14
-2 -50 -6 -80 -10 -71 -8 -108 -12 -205 -25 -44 -5 -107 -12 -139 -16 -33 -3
-67 -7 -75 -9 -9 -2 -47 -6 -86 -10 -38 -4 -81 -8 -95 -10 -21 -4 -81 -11
-235 -30 -16 -2 -55 -6 -85 -10 -30 -3 -107 -12 -170 -20 -63 -8 -142 -17
-175 -20 -33 -4 -71 -8 -85 -11 -14 -2 -51 -6 -82 -10 l-58 -7 0 35 c0 51 -27
145 -60 215 -55 112 -173 206 -294 233 -56 12 -198 5 -258 -14 -214 -67 -423
-256 -545 -492 -80 -155 -112 -286 -109 -450 2 -98 7 -132 28 -192 77 -215
237 -329 448 -317 41 2 88 7 105 10 44 9 171 64 199 86 13 10 27 19 31 19 13
0 109 83 168 144 102 108 191 259 237 401 38 121 29 111 117 120 43 4 87 9 98
10 11 2 50 7 88 10 38 4 76 8 85 10 9 1 48 6 85 10 37 3 76 8 87 10 10 2 51 7
91 10 40 4 81 8 92 10 10 2 48 7 85 10 37 4 78 8 92 10 14 2 50 7 80 10 30 3
89 10 130 15 41 5 102 12 135 15 33 4 71 8 85 10 24 4 150 18 180 20 14 1 98
12 165 20 17 2 57 7 90 10 33 3 71 8 85 10 22 3 146 16 160 17 18 1 30 -3 28
-9 -4 -18 16 -124 38 -201 76 -263 234 -468 451 -588 37 -20 69 -38 71 -40 2
-1 -35 -110 -83 -241 -48 -131 -125 -344 -172 -473 -46 -129 -88 -244 -93
-255 -27 -66 -50 -129 -50 -137 0 -5 -11 -37 -24 -71 -14 -34 -72 -195 -131
-357 -58 -162 -111 -308 -118 -325 -6 -16 -12 -32 -13 -35 0 -3 -5 -16 -11
-30 -5 -14 -27 -73 -47 -132 l-38 -106 -82 -1 c-195 -2 -386 -90 -546 -252
-482 -486 -415 -1330 120 -1520 89 -31 235 -35 334 -7 146 39 267 110 379 221
120 118 199 241 261 406 29 76 41 115 62 211 14 62 13 288 -2 365 -38 204
-139 374 -278 470 l-55 38 14 36 c8 20 53 144 100 276 47 132 97 269 110 305
13 36 47 130 75 210 28 80 60 168 70 195 11 28 80 221 155 430 209 583 254
708 258 712 2 2 33 -1 68 -6 89 -13 289 -6 382 14 175 37 382 130 539 242 107
76 279 246 358 353 35 47 64 86 66 88 1 2 49 -23 106 -56 56 -32 128 -72 158
-89 180 -98 699 -388 722 -404 15 -11 30 -19 33 -19 3 0 43 -21 88 -47 45 -25
111 -62 147 -81 36 -19 77 -43 92 -54 14 -10 29 -18 32 -18 3 0 57 -29 119
-64 61 -35 135 -76 162 -91 74 -41 554 -309 595 -332 19 -11 67 -37 105 -58
101 -55 95 -47 73 -118 -44 -138 -61 -320 -43 -442 41 -270 193 -505 410 -632
136 -80 278 -114 450 -108 228 7 430 99 606 274 205 206 305 462 295 753 -8
227 -92 431 -241 583 -170 172 -363 253 -600 249 -242 -3 -451 -98 -637 -287
l-86 -89 -209 115 c-114 63 -235 129 -268 148 -107 58 -139 76 -190 104 -137
76 -245 135 -295 162 -214 116 -1240 679 -1260 692 -14 8 -27 16 -30 16 -5 1
-124 66 -176 97 l-32 18 33 79 c127 301 155 649 75 936 -29 106 -106 264 -168
346 -56 74 -163 175 -228 216 -24 16 -44 32 -44 36 0 5 24 41 53 80 29 40 75
101 101 137 26 36 55 75 64 88 9 12 27 37 40 55 13 17 84 115 158 217 75 102
143 196 152 210 9 14 37 52 62 86 25 33 105 144 179 246 l134 185 56 -14 c85
-23 90 -23 171 -24 93 0 135 6 225 32 283 83 532 320 624 595 31 92 34 111 37
230 3 94 0 123 -20 187 -28 92 -65 156 -124 220 -74 79 -200 143 -317 162 -45
7 -168 8 -201 1 -12 -2 -37 -7 -55 -10 -39 -6 -121 -34 -193 -65 -171 -75
-358 -257 -450 -438 -72 -144 -104 -338 -76 -475 17 -84 73 -201 122 -254 26
-28 37 -48 32 -56 -5 -7 -107 -148 -227 -313 -120 -165 -225 -309 -233 -320
-192 -266 -488 -672 -494 -678 -4 -5 -41 -2 -81 7 -231 51 -459 29 -705 -70
-36 -14 -69 -22 -74 -18 -4 5 -55 126 -114 269 -59 143 -112 269 -116 280 -5
11 -82 196 -171 410 -88 215 -183 442 -209 505 -92 220 -250 601 -250 603 0 1
34 38 76 81 85 89 127 149 177 251 166 337 70 668 -218 757 -50 16 -196 17
-260 3z m175 -187 c162 -52 236 -240 172 -443 -81 -262 -359 -475 -589 -452
-156 16 -262 131 -268 293 -4 91 9 150 51 242 66 144 189 268 328 331 51 24
65 28 131 41 47 9 126 4 175 -12z m3572 -519 c288 -133 296 -533 14 -796 -229
-214 -553 -238 -719 -54 -162 180 -124 486 87 695 182 181 427 242 618 155z
m-2032 -2564 c30 -4 63 -11 72 -16 9 -5 25 -9 35 -9 29 0 176 -74 235 -119
100 -74 178 -169 236 -287 74 -150 100 -272 97 -457 -3 -150 -5 -164 -39 -296
-102 -394 -383 -737 -740 -907 -145 -69 -256 -95 -417 -100 -120 -3 -147 0
-228 21 -371 100 -596 408 -606 830 -5 202 37 394 130 593 123 262 378 523
632 646 107 52 251 95 363 108 40 5 171 1 230 -7z m-3954 -1266 c134 -50 213
-209 201 -399 -25 -390 -420 -727 -700 -597 -227 105 -259 455 -68 736 150
220 385 328 567 260z m8018 -1494 c185 -47 348 -204 406 -394 28 -89 32 -114
32 -206 -2 -372 -292 -686 -646 -699 -160 -6 -307 52 -420 167 -131 131 -186
275 -180 468 5 194 70 345 207 483 115 116 233 177 377 192 30 4 56 8 58 9 7
6 111 -7 166 -20z m-5820 -2034 c177 -62 296 -252 301 -483 1 -54 -3 -126 -11
-161 -7 -34 -13 -62 -13 -62 0 0 -2 -7 -4 -15 -67 -220 -197 -385 -370 -470
-158 -77 -306 -73 -440 12 -47 30 -125 116 -152 167 -69 134 -83 360 -33 521
42 133 113 254 201 341 161 159 346 212 521 150z"/>
</g>
</svg>
